<?xml version="1.0" encoding="UTF-8"?>
<svg id="Layer_1" data-name="Layer 1" xmlns="http://www.w3.org/2000/svg" viewBox="0 0 410.05 63.21">
  <defs>
    <style>
      .cls-1 {
        fill: #fff;
      }
    </style>
  </defs>
  <g>
    <path class="cls-1" d="M16.44,48.55c-2.48,0-4.7-.42-6.64-1.27-1.95-.84-3.48-2.11-4.59-3.8-1.11-1.69-1.67-3.78-1.67-6.29,0-2.16.39-3.95,1.18-5.38.79-1.43,1.86-2.58,3.23-3.45,1.37-.87,2.94-1.53,4.69-1.99s3.6-.78,5.52-.97c2.27-.21,4.09-.42,5.45-.63,1.36-.21,2.35-.52,2.97-.93.62-.41.93-1.02.93-1.85v-.21c0-1.01-.24-1.88-.72-2.6-.48-.73-1.18-1.29-2.09-1.71-.91-.41-2.02-.62-3.3-.62s-2.46.21-3.45.62c-.98.41-1.78.97-2.37,1.67s-.99,1.51-1.18,2.43l-9.7-.7c.37-2.44,1.29-4.54,2.74-6.29,1.45-1.76,3.38-3.11,5.77-4.04,2.39-.94,5.18-1.41,8.37-1.41,2.34,0,4.51.27,6.5.81,1.99.54,3.72,1.35,5.19,2.44,1.46,1.09,2.6,2.44,3.41,4.06s1.21,3.52,1.21,5.7v25.73h-10.09v-5.34h-.21c-.66,1.22-1.49,2.28-2.5,3.18-1.01.9-2.22,1.6-3.64,2.09-1.42.49-3.09.74-5.01.74ZM19.36,41.27c1.66,0,3.11-.32,4.34-.95s2.19-1.49,2.87-2.57c.68-1.08,1.02-2.3,1.02-3.66v-3.97c-.3.19-.74.36-1.3.53-.56.16-1.2.32-1.9.47-.7.15-1.44.29-2.2.4-.76.12-1.51.23-2.23.35-1.22.16-2.31.45-3.29.84-.97.4-1.74.94-2.3,1.62-.56.68-.84,1.52-.84,2.53,0,.94.25,1.73.74,2.39.49.66,1.18,1.15,2.06,1.49.88.34,1.89.51,3.04.51Z"/>
    <path class="cls-1" d="M63.41,63.21c-3.4,0-6.32-.46-8.75-1.37-2.44-.91-4.38-2.2-5.84-3.85-1.45-1.65-2.41-3.56-2.88-5.71l9.6-1.12c.28.84.76,1.6,1.44,2.27.68.67,1.55,1.2,2.62,1.58,1.07.39,2.34.58,3.81.58,2.6,0,4.62-.66,6.06-1.99,1.44-1.32,2.16-3.3,2.16-5.92v-6.36h-.39c-.61,1.27-1.41,2.37-2.41,3.32-1,.95-2.2,1.69-3.62,2.21-1.42.53-3.05.79-4.9.79-3.09,0-5.85-.76-8.26-2.27-2.41-1.51-4.31-3.69-5.7-6.52-1.38-2.84-2.07-6.23-2.07-10.2s.7-7.51,2.11-10.42,3.32-5.16,5.73-6.73c2.41-1.57,5.13-2.36,8.16-2.36,1.9,0,3.56.29,4.97.88,1.42.59,2.64,1.38,3.67,2.37,1.03,1,1.88,2.1,2.53,3.32h.21v-5.94h10.3v37.16c0,3.75-.79,6.83-2.36,9.23-1.57,2.4-3.75,4.18-6.54,5.33-2.79,1.15-6.01,1.72-9.67,1.72ZM63.27,39.48c1.78,0,3.32-.44,4.61-1.32,1.29-.88,2.28-2.14,2.97-3.78.69-1.64,1.04-3.59,1.04-5.84s-.35-4.2-1.04-5.85-1.68-2.94-2.97-3.85c-1.29-.91-2.82-1.37-4.61-1.37s-3.23.45-4.48,1.35c-1.25.9-2.21,2.18-2.88,3.83s-1,3.62-1,5.89.33,4.23,1,5.87c.67,1.64,1.63,2.9,2.88,3.76,1.25.87,2.75,1.3,4.48,1.3Z"/>
    <path class="cls-1" d="M107.35,48.69c-3.87,0-7.22-.83-10.05-2.48s-5.03-3.96-6.57-6.93c-1.55-2.96-2.32-6.42-2.32-10.35s.78-7.32,2.34-10.3c1.56-2.98,3.73-5.31,6.5-7s6.01-2.53,9.69-2.53c2.65,0,5.09.44,7.33,1.32s4.18,2.16,5.82,3.85,2.92,3.74,3.83,6.15c.91,2.41,1.37,5.16,1.37,8.23v2.85h-32.91v-6.61h27.84l-4.78,1.65c0-1.95-.33-3.63-.98-5.06-.66-1.43-1.61-2.53-2.85-3.3s-2.75-1.16-4.54-1.16-3.26.39-4.52,1.18c-1.25.79-2.22,1.88-2.9,3.27-.68,1.39-1.02,3.02-1.02,4.87v4.61c0,2.06.36,3.84,1.09,5.33.73,1.49,1.76,2.62,3.11,3.41,1.35.79,2.94,1.18,4.76,1.18,1.31,0,2.48-.19,3.52-.56,1.03-.37,1.9-.91,2.62-1.62s1.24-1.53,1.56-2.5l9.49.77c-.54,2.32-1.61,4.37-3.22,6.13-1.61,1.77-3.62,3.15-6.05,4.13s-5.15,1.48-8.17,1.48Z"/>
    <path class="cls-1" d="M142.02,26.3v21.59h-10.44V9.77h10.09l.07,9.74h-1.27c1.1-3.28,2.72-5.83,4.87-7.65,2.14-1.82,4.89-2.72,8.24-2.72,2.67,0,5,.58,7,1.74s3.53,2.84,4.62,5.03c1.09,2.19,1.63,4.85,1.63,7.96v24.01h-10.44v-22.15c0-2.46-.61-4.36-1.83-5.7s-2.93-2-5.13-2c-1.45,0-2.74.3-3.85.91-1.11.61-1.99,1.53-2.62,2.76s-.95,2.76-.95,4.59Z"/>
    <path class="cls-1" d="M192.19,48.69c-3.82,0-7.15-.83-9.98-2.5-2.84-1.66-5.03-3.98-6.59-6.94-1.56-2.96-2.34-6.4-2.34-10.32s.78-7.39,2.34-10.37c1.56-2.98,3.76-5.3,6.59-6.96,2.84-1.66,6.16-2.5,9.98-2.5,2.39,0,4.59.33,6.61,1s3.79,1.62,5.31,2.85,2.76,2.7,3.71,4.41c.95,1.71,1.55,3.62,1.81,5.73l-9.91.81c-.19-.98-.48-1.87-.88-2.65-.4-.79-.91-1.46-1.55-2.04-.63-.57-1.37-1.01-2.2-1.32-.83-.3-1.76-.46-2.79-.46-1.78,0-3.3.47-4.57,1.42s-2.23,2.29-2.88,4.01-.98,3.73-.98,6.03.33,4.3.98,6.01c.66,1.71,1.62,3.05,2.88,4.01,1.27.96,2.79,1.44,4.57,1.44,1.03,0,1.96-.15,2.79-.46.83-.3,1.56-.74,2.18-1.32.62-.57,1.14-1.27,1.55-2.09.41-.82.71-1.73.9-2.74l9.95.77c-.23,2.13-.82,4.06-1.76,5.78s-2.17,3.21-3.71,4.46c-1.54,1.25-3.32,2.22-5.34,2.9s-4.25,1.02-6.66,1.02Z"/>
    <path class="cls-1" d="M215.07,62.23l1.05-8.09,3.2.14c1.1.16,2.04.14,2.81-.07s1.41-.64,1.92-1.28c.5-.65.87-1.52,1.11-2.62l.7-2.46-14.52-38.07h11.04l6.36,19.27c.77,2.37,1.45,4.73,2.04,7.08s1.2,4.76,1.83,7.22h-2.71c.61-2.46,1.24-4.87,1.88-7.24.64-2.37,1.35-4.72,2.13-7.07l6.54-19.27h10.9l-16.52,43.35c-.77,2.09-1.74,3.84-2.9,5.27-1.16,1.43-2.56,2.51-4.2,3.23-1.64.73-3.57,1.09-5.8,1.09-1.24,0-2.46-.05-3.66-.14-1.2-.09-2.26-.21-3.2-.35Z"/>
    <path class="cls-1" d="M270.13,48.73c-2.67,0-5.07-.42-7.21-1.25s-3.87-2.08-5.22-3.74c-1.35-1.66-2.17-3.75-2.48-6.26l5.98-.63c.35,2.18,1.28,3.82,2.79,4.92,1.51,1.1,3.51,1.65,5.99,1.65,2.67,0,4.78-.56,6.33-1.69s2.32-2.5,2.32-4.11c0-1.41-.5-2.54-1.49-3.41-1-.87-2.38-1.5-4.17-1.9l-6.22-1.48c-3.52-.82-6.15-2.11-7.89-3.88-1.75-1.77-2.62-4.01-2.62-6.73,0-2.18.6-4.1,1.79-5.77,1.2-1.66,2.84-2.97,4.94-3.92s4.49-1.42,7.19-1.42,4.96.45,6.93,1.35c1.97.9,3.56,2.16,4.76,3.78s1.95,3.52,2.23,5.7l-5.77.67c-.26-1.71-1.06-3.18-2.41-4.41s-3.25-1.85-5.71-1.85c-2.3,0-4.17.54-5.62,1.63s-2.18,2.44-2.18,4.06c0,1.43.52,2.58,1.56,3.45,1.04.87,2.57,1.54,4.59,2l5.94,1.41c3.56.84,6.19,2.13,7.88,3.85s2.53,3.92,2.53,6.59c0,2.3-.63,4.3-1.9,6.01-1.27,1.71-3.01,3.04-5.24,3.97s-4.77,1.41-7.63,1.41Z"/>
    <path class="cls-1" d="M309.12,9.77v5.27h-20.21v-5.27h20.21ZM295.19,0h6.15v38.36c0,1.57.32,2.7.97,3.38.64.68,1.76,1.02,3.36,1.02.47,0,1.01-.02,1.63-.07.62-.05,1.19-.08,1.71-.11l.6,5.2c-.63.12-1.34.2-2.11.25-.77.05-1.51.07-2.21.07-3.28,0-5.78-.79-7.51-2.36-1.72-1.57-2.58-3.84-2.58-6.82V0Z"/>
    <path class="cls-1" d="M328.06,48.59c-2.46,0-4.68-.44-6.66-1.32s-3.56-2.19-4.73-3.92c-1.17-1.73-1.76-3.85-1.76-6.36,0-2.18.43-3.96,1.3-5.33s2.02-2.45,3.45-3.23c1.43-.79,3.04-1.38,4.83-1.78,1.79-.4,3.6-.71,5.43-.95,2.37-.3,4.25-.54,5.66-.7,1.41-.16,2.43-.44,3.06-.83s.95-1.06.95-2.02v-.28c0-1.48-.31-2.76-.93-3.85s-1.55-1.93-2.78-2.53-2.74-.9-4.52-.9-3.33.29-4.66.86c-1.32.57-2.39,1.33-3.2,2.27-.81.94-1.33,1.96-1.56,3.06l-6.08-.88c.52-2.34,1.51-4.31,2.99-5.89s3.29-2.78,5.45-3.6c2.16-.82,4.49-1.23,7-1.23,1.78,0,3.53.23,5.26.7,1.72.47,3.27,1.21,4.64,2.23s2.47,2.35,3.29,3.99c.82,1.64,1.23,3.66,1.23,6.05v25.73h-6.05v-5.31h-.28c-.45.91-1.12,1.83-2.04,2.76-.91.93-2.13,1.7-3.64,2.32s-3.39.93-5.64.93ZM329.01,43.14c2.41,0,4.4-.44,5.96-1.34,1.56-.89,2.72-2.05,3.48-3.48.76-1.43,1.14-2.95,1.14-4.57v-4.99c-.23.26-.71.49-1.44.7s-1.59.4-2.58.58-2.02.34-3.06.49c-1.04.15-2,.29-2.87.4-1.48.19-2.86.51-4.15.97s-2.33,1.11-3.13,1.97c-.8.86-1.2,2-1.2,3.43,0,1.24.33,2.3.98,3.16.66.87,1.57,1.53,2.74,1.99s2.54.69,4.11.69Z"/>
    <path class="cls-1" d="M371.45,9.77v5.27h-20.21v-5.27h20.21ZM357.53,0h6.15v38.36c0,1.57.32,2.7.97,3.38.64.68,1.76,1.02,3.36,1.02.47,0,1.01-.02,1.63-.07.62-.05,1.19-.08,1.71-.11l.6,5.2c-.63.12-1.34.2-2.11.25-.77.05-1.51.07-2.21.07-3.28,0-5.78-.79-7.51-2.36-1.72-1.57-2.58-3.84-2.58-6.82V0Z"/>
    <path class="cls-1" d="M393.63,48.73c-3.7,0-6.88-.84-9.53-2.51s-4.68-4-6.1-6.96c-1.42-2.96-2.13-6.38-2.13-10.25s.72-7.33,2.16-10.32,3.46-5.33,6.05-7.03c2.59-1.7,5.58-2.55,8.98-2.55,2.37,0,4.58.42,6.63,1.25,2.05.83,3.86,2.07,5.41,3.71,1.56,1.64,2.77,3.68,3.64,6.12.87,2.44,1.3,5.26,1.3,8.47v2.11h-30.52v-5.24h27.18l-2.74,1.86c0-2.55-.43-4.79-1.3-6.71-.87-1.92-2.11-3.42-3.73-4.5-1.62-1.08-3.57-1.62-5.87-1.62s-4.24.54-5.89,1.63-2.93,2.57-3.83,4.43-1.35,3.97-1.35,6.31v2.99c0,2.72.47,5.07,1.41,7.07.94,1.99,2.28,3.53,4.03,4.61,1.75,1.08,3.83,1.62,6.24,1.62,1.66,0,3.15-.25,4.45-.76,1.3-.5,2.4-1.23,3.29-2.18s1.56-2.07,2-3.36l6.01.74c-.52,2.18-1.51,4.1-2.97,5.77-1.46,1.66-3.29,2.97-5.48,3.9s-4.63,1.41-7.33,1.41Z"/>
  </g>
  <text/>
</svg>