<?xml version="1.0" encoding="UTF-8"?>
<svg id="Layer_1" data-name="Layer 1" xmlns="http://www.w3.org/2000/svg" viewBox="0 0 86.25 86.25">
  <defs>
    <style>
      .cls-1 {
        fill: #2b2b2b;
      }

      .cls-2 {
        fill: #fff;
      }
    </style>
  </defs>
  <g>
    <g>
      <rect class="cls-1" x=".62" y=".62" width="85" height="85"/>
      <path class="cls-1" d="M85.75,85.75H.5V.5h85.25v85.25ZM.75,85.5h84.75V.75H.75v84.75Z"/>
    </g>
    <g>
      <path class="cls-1" d="M86.12,86.12H.12V.12h86v86ZM1.12,85.12h84V1.12H1.12v84Z"/>
      <path class="cls-1" d="M86.25,86.25H0V0h86.25v86.25ZM.25,86h85.75V.25H.25v85.75ZM85.25,85.25H1V1h84.25v84.25ZM1.25,85h83.75V1.25H1.25v83.75Z"/>
    </g>
  </g>
  <g>
    <path class="cls-2" d="M26.93,58.18c-1.84,0-3.5-.33-4.97-.99-1.48-.66-2.65-1.64-3.53-2.94-.87-1.3-1.31-2.89-1.31-4.77,0-1.63.32-2.96.97-3.99.65-1.03,1.5-1.84,2.57-2.42,1.07-.59,2.27-1.03,3.61-1.33s2.69-.54,4.05-.71c1.77-.23,3.18-.4,4.23-.53s1.81-.33,2.28-.62c.47-.29.71-.79.71-1.52v-.21c0-1.11-.23-2.07-.7-2.89-.46-.82-1.15-1.45-2.07-1.9-.92-.45-2.04-.67-3.37-.67s-2.49.22-3.48.65c-.99.43-1.78,1-2.39,1.7s-.99,1.47-1.17,2.29l-4.54-.66c.38-1.76,1.13-3.23,2.23-4.41,1.1-1.19,2.46-2.09,4.07-2.7,1.61-.61,3.35-.92,5.22-.92,1.33,0,2.64.18,3.92.53,1.29.35,2.44.91,3.46,1.67,1.02.76,1.84,1.76,2.45,2.99.61,1.23.92,2.74.92,4.53v19.29h-4.51v-3.98s-.21,0-.21,0c-.33.69-.84,1.37-1.52,2.07-.68.69-1.59,1.27-2.72,1.74s-2.53.7-4.21.7ZM27.64,54.1c1.8,0,3.28-.33,4.45-1s2.03-1.54,2.6-2.61c.57-1.07.85-2.21.85-3.43v-3.74c-.18.19-.53.37-1.08.53-.54.16-1.19.3-1.93.43-.74.13-1.5.25-2.28.37-.78.11-1.49.22-2.14.3-1.1.14-2.13.38-3.1.72-.96.34-1.74.83-2.34,1.48s-.89,1.5-.89,2.57c0,.93.24,1.72.73,2.37.49.65,1.17,1.15,2.05,1.49.87.34,1.9.51,3.07.51Z"/>
    <path class="cls-2" d="M58.3,58.24c-1.96,0-3.7-.32-5.22-.95-1.52-.63-2.76-1.57-3.71-2.81-.96-1.24-1.54-2.76-1.75-4.57l3.36-.37c.28,1.83,1.04,3.22,2.28,4.19,1.24.97,2.9,1.45,4.99,1.45,2.19,0,3.93-.49,5.22-1.48,1.29-.98,1.94-2.22,1.94-3.72,0-1.19-.41-2.15-1.23-2.87s-2-1.26-3.54-1.61l-4.67-1.13c-2.5-.6-4.39-1.52-5.67-2.78s-1.92-2.87-1.92-4.83c0-1.6.43-3.01,1.29-4.23s2.04-2.18,3.56-2.87,3.25-1.04,5.21-1.04,3.51.33,4.92.98,2.54,1.57,3.41,2.77c.87,1.19,1.42,2.63,1.67,4.29l-3.28.37c-.26-1.6-.95-2.89-2.07-3.89-1.12-.99-2.67-1.49-4.65-1.49s-3.55.47-4.76,1.41c-1.21.94-1.82,2.15-1.82,3.62,0,1.21.43,2.19,1.3,2.92.87.74,2.13,1.31,3.79,1.71l4.54,1.08c2.52.6,4.39,1.5,5.62,2.71,1.22,1.21,1.84,2.79,1.84,4.74,0,1.69-.45,3.16-1.35,4.41s-2.15,2.23-3.75,2.92c-1.6.69-3.44,1.04-5.53,1.04Z"/>
  </g>
</svg>